<svg width="24" height="24" viewBox="0 0 24 24" fill="none" xmlns="http://www.w3.org/2000/svg">
<path d="M22.4139 10.5545H19.7211C19.8343 10.3881 19.9007 10.1875 19.9007 9.9715V9.75803H20.2991C20.6109 9.75803 20.8645 9.50434 20.8645 9.19258V8.18064C20.8645 7.86888 20.6109 7.61519 20.2991 7.61519H19.9007V6.94384C19.9007 6.81784 19.7986 6.71566 19.6726 6.71566H16.8777C16.7517 6.71566 16.6495 6.81784 16.6495 6.94384V9.97155C16.6495 10.1875 16.716 10.3881 16.8292 10.5545H12.4761L11.7773 9.41088C11.7358 9.343 11.6619 9.3017 11.5825 9.3017H10.3276V8.38792H13.4529C13.8907 8.38792 14.2468 8.03181 14.2468 7.59405V1.99309C14.2468 1.55533 13.8907 1.19922 13.4529 1.19922H4.11165C3.67388 1.19922 3.31777 1.55533 3.31777 1.99309V7.59395C3.31777 8.03172 3.67388 8.38783 4.11165 8.38783H6.97998V9.30161H5.82676C5.74731 9.30161 5.67343 9.34295 5.63199 9.41078L4.93313 10.5544H1.5864C0.911399 10.5544 0.362305 11.1035 0.362305 11.7785C0.362305 12.4535 0.911399 13.0026 1.5864 13.0026H2.2898V22.5725C2.2898 22.6985 2.39199 22.8007 2.51799 22.8007H4.18843C4.31443 22.8007 4.41662 22.6985 4.41662 22.5725V21.4354H19.059V22.5725C19.059 22.6985 19.1611 22.8007 19.2871 22.8007H20.9576C21.0836 22.8007 21.1858 22.6985 21.1858 22.5725V13.0027H22.4139C23.0889 13.0027 23.6379 12.4536 23.6379 11.7786C23.6379 11.1036 23.0889 10.5545 22.4139 10.5545ZM3.77415 7.594V1.99309C3.77415 1.807 3.92555 1.65559 4.11165 1.65559H13.453C13.6391 1.65559 13.7905 1.807 13.7905 1.99309V7.59395C13.7905 7.78005 13.6391 7.93145 13.453 7.93145H4.11165C3.9256 7.9315 3.77415 7.78005 3.77415 7.594ZM20.2991 8.07156C20.3593 8.07156 20.4082 8.1205 20.4082 8.18064V9.19258C20.4082 9.25277 20.3593 9.30166 20.2991 9.30166H19.9008V8.07156H20.2991ZM17.106 9.9715V7.17203H19.4444V9.9715C19.4444 10.293 19.1829 10.5545 18.8614 10.5545H17.6889C17.3675 10.5545 17.106 10.293 17.106 9.9715ZM7.4364 8.38844H9.87123V9.30166H7.4364V8.38844ZM5.95482 9.75803H11.4545L11.9412 10.5545H5.46812L5.95482 9.75803ZM3.96024 22.3443H2.74618V13.0027H3.96024V22.3443ZM9.80701 13.0027V14.8011C9.80701 15.0457 9.60802 15.2447 9.36334 15.2447H4.41662V13.0027H9.80701ZM19.059 13.0027V19.8225H4.41662V15.7011H9.36334C9.8596 15.7011 10.2634 15.2974 10.2634 14.8012V13.0027H19.059V13.0027ZM4.41662 20.9791V20.2789H19.059V20.9791H4.41662ZM20.7294 22.3443H19.5154C19.5154 18.2548 19.5154 15.354 19.5154 13.0027H20.7294V22.3443ZM22.4139 12.5463C15.6061 12.5463 9.73599 12.5463 1.58635 12.5463C1.16307 12.5463 0.818633 12.2019 0.818633 11.7786C0.818633 11.3553 1.16302 11.0109 1.58635 11.0109H22.4139C22.8372 11.0109 23.1816 11.3553 23.1816 11.7786C23.1816 12.2019 22.8372 12.5463 22.4139 12.5463Z" fill="#1B75BC"/>
<path d="M6.71012 14.3519H7.33656C7.46256 14.3519 7.56475 14.2497 7.56475 14.1237C7.56475 13.9977 7.46256 13.8955 7.33656 13.8955H6.71012C6.58412 13.8955 6.48193 13.9977 6.48193 14.1237C6.48193 14.2497 6.58412 14.3519 6.71012 14.3519Z" fill="#1B75BC"/>
<path d="M19.7173 4.47013V4.87171C19.7173 4.94962 19.6539 5.01299 19.576 5.01299H18.6444C18.315 5.01299 18.0469 5.28107 18.0469 5.61065V6.02826C18.0469 6.15426 18.1491 6.25644 18.2751 6.25644C18.4011 6.25644 18.5032 6.15426 18.5032 6.02826V5.61065C18.5032 5.53274 18.5665 5.46937 18.6444 5.46937H19.576C19.9056 5.46937 20.1737 5.20129 20.1737 4.87171V4.47013C20.1737 4.34413 20.0715 4.24194 19.9455 4.24194C19.8195 4.24194 19.7173 4.34408 19.7173 4.47013Z" fill="#1B75BC"/>
<path d="M14.5515 11.5503H9.10221C8.97621 11.5503 8.87402 11.6525 8.87402 11.7785C8.87402 11.9045 8.97621 12.0067 9.10221 12.0067H14.5516C14.6776 12.0067 14.7798 11.9045 14.7798 11.7785C14.7798 11.6525 14.6776 11.5503 14.5515 11.5503Z" fill="#1B75BC"/>
<path d="M16.1216 11.5503H15.4826C15.3566 11.5503 15.2544 11.6525 15.2544 11.7785C15.2544 11.9045 15.3566 12.0067 15.4826 12.0067H16.1216C16.2476 12.0067 16.3498 11.9045 16.3498 11.7785C16.3498 11.6525 16.2476 11.5503 16.1216 11.5503Z" fill="#1B75BC"/>
</svg>
