<svg width="22" height="29" viewBox="0 0 22 29" fill="none" xmlns="http://www.w3.org/2000/svg">
<path d="M18.5678 16.6267H17.5998V15.428C18.3625 15.2347 18.9492 14.3453 18.9492 13.3013V3.90532C18.9492 2.70666 18.2158 1.73999 17.3065 1.73999H10.9705C10.0612 1.73999 9.32782 2.70666 9.32782 3.90532V13.2627C9.32782 14.3453 9.91449 15.2347 10.6772 15.3893V16.6267H7.42116V15.9307C7.42116 15.6987 7.30382 15.544 7.12782 15.544H5.42649C5.25049 15.544 5.13316 15.6987 5.13316 15.9307V16.6267H4.95716C4.66382 16.6267 4.42916 16.3173 4.42916 15.9307V13.4947C4.42916 13.2627 4.31182 13.108 4.13582 13.108H1.61316C1.43716 13.108 1.31982 13.2627 1.31982 13.4947V18.1733C1.31982 20.416 2.69849 22.1947 4.37049 22.1947H5.10382V22.8907C5.10382 23.1227 5.22116 23.2773 5.39716 23.2773H7.09849C7.27449 23.2773 7.39182 23.1227 7.39182 22.8907V22.1947H10.6478V24.592H9.97316C9.79716 24.592 9.67982 24.7467 9.67982 24.9787V26.8733C9.67982 27.1053 9.79716 27.26 9.97316 27.26H18.3038C18.4798 27.26 18.5972 27.1053 18.5972 26.8733V24.9787C18.5972 24.7467 18.4798 24.592 18.3038 24.592H17.5998V22.1947H18.5385C19.7118 22.1947 20.6505 20.9573 20.6505 19.4107C20.6505 17.864 19.7412 16.6267 18.5678 16.6267ZM5.13316 21.4213H4.39982C3.02116 21.4213 1.93582 19.952 1.93582 18.1733V13.8813H3.87182V15.9307C3.87182 16.7427 4.37049 17.4 4.98649 17.4H5.16249V21.4213H5.13316ZM6.83449 22.504H5.71982C5.71982 18.9853 5.71982 19.4493 5.71982 16.2787H6.83449V22.504ZM9.91449 13.3013V3.90532C9.91449 3.13199 10.3838 2.51332 10.9705 2.51332H17.3065C17.8932 2.51332 18.3625 3.13199 18.3625 3.90532V13.2627C18.3625 14.036 17.8932 14.6547 17.3065 14.6547H10.9705C10.3838 14.6933 9.91449 14.0747 9.91449 13.3013ZM17.0132 15.4667V16.6267H11.2638V15.4667H17.0132ZM7.42116 21.4213V17.4H9.09316C8.68249 17.9027 8.41849 18.6373 8.41849 19.4107C8.41849 20.2227 8.68249 20.9187 9.06382 21.4213H7.42116ZM18.0105 25.3653V26.4867H10.2665V25.3653H18.0105ZM11.2638 24.592V22.1947H17.0132V24.592H11.2638ZM18.5678 21.4213H10.5305H10.5012C9.65049 21.4213 8.97582 20.4933 8.97582 19.4107C8.97582 18.2893 9.65049 17.4 10.5012 17.4H18.5385C19.3892 17.4 20.0638 18.2893 20.0638 19.4107C20.0638 20.532 19.4185 21.4213 18.5678 21.4213Z" fill="#1B75BC"/>
<path d="M15.0477 13.6879C15.2237 13.6879 15.3411 13.5332 15.3411 13.3012V3.90522C15.3411 3.67322 15.2237 3.51855 15.0477 3.51855C14.8717 3.51855 14.7544 3.67322 14.7544 3.90522V13.2626C14.7544 13.4946 14.9011 13.6879 15.0477 13.6879Z" fill="#1B75BC"/>
<path d="M13.2294 13.6879C13.4054 13.6879 13.5227 13.5332 13.5227 13.3012V3.90522C13.5227 3.67322 13.4054 3.51855 13.2294 3.51855C13.0534 3.51855 12.936 3.67322 12.936 3.90522V13.2626C12.936 13.4946 13.0827 13.6879 13.2294 13.6879Z" fill="#1B75BC"/>
<path d="M11.4398 13.6879C11.6158 13.6879 11.7332 13.5332 11.7332 13.3012V3.90522C11.7332 3.67322 11.6158 3.51855 11.4398 3.51855C11.2638 3.51855 11.1465 3.67322 11.1465 3.90522V13.2626C11.1465 13.4946 11.2638 13.6879 11.4398 13.6879Z" fill="#1B75BC"/>
<path d="M16.8666 13.6879C17.0426 13.6879 17.1599 13.5332 17.1599 13.3012V3.90522C17.1599 3.67322 17.0426 3.51855 16.8666 3.51855C16.6906 3.51855 16.5732 3.67322 16.5732 3.90522V13.2626C16.5732 13.4946 16.6906 13.6879 16.8666 13.6879Z" fill="#1B75BC"/>
</svg>
