<svg width="24" height="28" viewBox="0 0 24 28" fill="none" xmlns="http://www.w3.org/2000/svg">
<path d="M18.2862 5.71429C19.5599 5.71429 20.5714 4.44965 20.5714 2.85714C20.5714 1.26464 19.5225 0 18.2862 0C17.0499 0 16.001 1.26464 16.001 2.85714C15.9635 4.44965 17.0125 5.71429 18.2862 5.71429ZM18.2862 0.936768C19.1478 0.936768 19.8222 1.8267 19.8222 2.85714C19.8222 3.93443 19.1104 4.77752 18.2862 4.77752C17.4246 4.77752 16.7502 3.93443 16.7502 2.85714C16.7128 1.8267 17.4246 0.936768 18.2862 0.936768Z" fill="#1B75BC"/>
<path d="M23.4253 13.1128L21.0527 11.4412C18.9298 7.1122 18.8465 6.42642 17.5978 6.16926L15.9744 5.82637C14.7256 5.5692 13.3104 5.78351 12.686 6.16926L9.77223 7.79798C9.48085 7.96943 9.27273 8.22659 9.18947 8.52662L7.98234 12.6842C7.81584 13.2413 8.02396 13.8843 8.56509 14.2272L7.64934 16.6274L5.69295 15.7702C4.44419 15.2558 3.02893 15.8987 2.52942 17.1846L0.0319019 23.7423C-0.0513487 23.9566 0.0319019 24.2138 0.240029 24.2995L3.11218 25.5425C3.11218 26.2283 3.4868 26.8283 4.11118 27.0855C4.90206 27.4284 5.81782 26.9998 6.15082 26.1854C6.40058 25.5425 6.23408 24.771 5.65132 24.2995L8.31534 17.356L9.43923 14.4415C9.93873 14.3557 10.3134 14.0129 10.4799 13.5414L11.6037 9.9839L13.3936 8.95523C12.6444 12.9842 12.5611 12.9842 12.5611 13.67L12.1032 21.0421L10.1469 25.0282C9.60573 26.1426 10.355 27.4284 11.5621 27.4284H11.6037C12.1865 27.4284 12.7693 27.0855 13.019 26.5712L15.2668 22.5422C15.4749 22.1565 15.5581 21.7707 15.5581 21.3421V18.7276L17.3064 21.1278L17.5145 25.8425C17.5562 26.6998 18.2222 27.3855 19.0547 27.4284H19.0963C20.0121 27.4284 20.7613 26.6569 20.7613 25.7568L20.8862 20.5277C20.8862 20.0563 20.8029 19.5848 20.5948 19.1991C20.5532 19.1562 20.7613 19.4134 17.4729 14.2272L18.1805 11.9127L18.8049 13.1985C18.8882 13.4128 19.0547 13.5414 19.2212 13.67L21.8852 15.4701C22.5512 15.8987 23.4253 15.6844 23.8 14.9987C24.1746 14.3129 24.0081 13.5414 23.4253 13.1128ZM5.40157 25.8854C5.23507 26.2711 4.81881 26.4855 4.44419 26.314C4.06956 26.1426 3.86143 25.7139 4.02793 25.3282C4.19443 24.9424 4.61069 24.7281 4.98532 24.8996C5.15182 24.9853 5.31832 25.1139 5.40157 25.2853C5.44319 25.4568 5.44319 25.6711 5.40157 25.8854ZM4.86044 23.9995C4.27769 23.9138 3.69493 24.2138 3.36193 24.7281L0.947659 23.6995L2.86242 18.8133L6.23408 20.4849L4.86044 23.9995ZM6.52545 19.7134L3.1538 18.0418L3.3203 17.5703C3.65331 16.7131 4.61069 16.2845 5.40157 16.6274L7.35796 17.4846L6.52545 19.7134ZM14.5591 22.1136L12.3114 26.1426C12.1865 26.3997 11.8951 26.5712 11.6037 26.5712C11.021 26.5712 10.6464 25.9283 10.9377 25.4139L12.9358 21.3421C12.9774 21.2992 12.9774 21.2135 12.9774 21.1707L13.2688 15.513L14.7673 17.5275V21.2992C14.7673 21.5993 14.684 21.8564 14.5591 22.1136ZM18.347 8.61234L16.682 14.0986C16.6404 14.2272 16.682 14.3557 16.7237 14.4415L19.9288 19.5419C20.0537 19.842 20.1369 20.142 20.1369 20.442L20.0121 25.6711C20.0121 26.1426 19.6374 26.5283 19.1379 26.5283C18.7217 26.5283 18.4303 26.1854 18.3887 25.7568L18.1805 20.9135C18.1805 20.8278 18.1389 20.7421 18.0973 20.6563L13.8099 14.8272C13.5601 14.4843 13.4353 14.0986 13.3936 13.7128C14.1013 9.7696 14.3094 8.61234 14.351 8.31232C14.3926 8.01229 14.351 8.31232 14.351 8.26945C14.4343 7.92656 14.0596 7.62654 13.7266 7.79798L11.021 9.34098C10.9377 9.38384 10.8545 9.46957 10.8129 9.59815L9.68898 13.2842C9.64735 13.4985 9.43923 13.6271 9.2311 13.6271C8.93972 13.6271 8.68997 13.3271 8.77322 13.027L9.98036 8.86951C10.022 8.78379 10.0636 8.69807 10.1469 8.65521L13.0606 7.02648C13.9348 6.68359 14.8921 6.59787 15.8079 6.76931L17.4313 7.1122C18.1389 7.19793 18.5552 7.92657 18.347 8.61234ZM23.134 14.5272C22.9675 14.7844 22.6345 14.8701 22.4263 14.6986L19.7623 12.8985C19.7207 12.8556 19.6791 12.8127 19.6374 12.7699L18.6384 10.6697L19.0547 9.25526L20.3867 11.9984C20.4283 12.0412 20.4699 12.127 20.5116 12.1698L22.9675 13.8843C23.1756 13.97 23.2588 14.27 23.134 14.5272Z" fill="#1B75BC"/>
</svg>
